PathFileType	4	(X/Y/Z)	D:\TRACE\spotREDO_2-26-24\spot_justBody_Motion_3_5-v60.trc
DataRate	CameraRate	NumFrames	NumMarkers	Units	OrigDataRate	OrigDataStartFrame	OrigNumFrames
100.00	100.00	      38	9	mm	100.00	4376	      7000
Frame#	Time	front left toe			Front right toe			aft left toe			aft right toe			Arm			FL body			FR body			AL Body			AR Body			
		X1	Y1	Z1	X2	Y2	Z2	X3	Y3	Z3	X4	Y4	Z4	X5	Y5	Z5	X6	Y6	Z6	X7	Y7	Z7	X8	Y8	Z8	X9	Y9	Z9	

4376	43.750	-238.18301	23.76340	-87.75931	234.12575	29.31934	-126.84402	-242.04332	7.06163	409.98489	262.69943	16.53741	312.69754	-33.04653	814.35162	-271.82779	-117.28603	555.24591	-245.16830	38.33318	558.29724	-259.52158	-45.25850	552.62402	635.75812	95.98792	555.87006	625.18280	
4377	43.760	-238.11807	23.78757	-87.79140	234.14767	28.79118	-127.22475	-241.99724	7.02179	409.92999	262.78171	16.51746	312.63632	-32.49448	814.58374	-272.19122	-116.99297	555.56915	-245.63892	38.85404	558.27924	-259.97214	-44.44844	552.77350	635.18140	96.52645	555.76385	624.82904	
4378	43.770	-237.92279	23.75600	-87.72954	234.10403	28.81279	-126.95878	-241.87053	7.09553	409.91360	262.93372	16.51600	312.59940	-31.57817	814.71790	-272.59448	-116.30158	555.66937	-245.77802	39.41541	558.44458	-260.36920	-43.81667	552.90118	634.84381	96.89317	555.68958	624.26715	
4379	43.780	-237.82489	23.82166	-87.74452	234.10008	28.88180	-126.92252	-241.73914	7.21775	409.83347	263.06201	16.54645	312.60678	-30.78570	814.86823	-273.00656	-115.62245	556.13757	-246.38362	40.11390	558.62549	-260.71756	-42.64831	552.89484	634.62207	98.34210	555.45001	623.78247	
4380	43.790	-237.73898	23.83603	-87.70440	234.01993	29.14823	-127.05447	-241.67587	7.34519	409.83179	263.11765	16.49985	312.58524	-30.17495	815.15955	-273.24753	-115.26429	556.50494	-246.74654	40.47964	558.70508	-261.26785	-41.82531	552.93750	634.16443	99.04720	555.14807	623.29065	
4381	43.800	-237.70570	23.91059	-87.63568	234.04245	29.17957	-127.05775	-241.65880	7.37859	409.82336	263.25330	16.42091	312.50620	-29.39256	815.27728	-273.65735	-114.89349	556.69843	-247.08682	40.83966	558.77234	-261.69107	-40.74066	553.12885	633.65417	100.16190	555.15900	622.85345	
4382	43.810	-237.71523	23.94813	-87.66499	234.20297	28.91790	-127.07616	-241.64983	7.42198	409.75851	263.25977	16.30759	312.52252	-28.38624	815.30121	-274.26041	-114.14738	556.66968	-247.38063	41.51597	558.75183	-262.20013	-39.79718	552.98505	633.33136	101.07500	555.18164	622.36035	
4383	43.820	-237.58936	23.93760	-87.73100	234.31642	28.71274	-127.12787	-241.56314	7.44976	409.68338	263.32391	16.15018	312.42313	-27.87242	815.42291	-274.54813	-113.89994	556.94116	-248.20993	42.09848	558.72882	-262.83636	-38.80146	552.92877	632.66345	102.33813	555.15033	621.74481	
4384	43.830	-237.50986	23.98357	-87.71686	234.34764	28.86296	-127.06528	-241.51413	7.50741	409.66898	263.52106	16.08240	312.46524	-27.28487	815.51257	-275.15005	-113.18998	557.19928	-248.66753	42.74322	558.89032	-263.22626	-37.96092	552.83887	632.24500	103.22590	554.94214	621.22229	
4385	43.840	-237.49982	24.08594	-87.65562	234.39586	28.90215	-127.06390	-241.44214	7.48970	409.68289	263.53290	15.98523	312.54053	-26.30326	815.62128	-275.70877	-112.43705	557.49243	-249.11501	42.91522	559.10895	-263.92346	-36.75549	552.79950	631.70612	104.11555	554.65216	620.42981	
4386	43.850	-237.47664	24.17416	-87.62654	234.27448	29.00171	-127.17548	-241.42868	7.50823	409.69983	263.53235	15.91030	312.60785	-25.34605	815.78101	-276.08807	-111.90177	557.54150	-249.60957	44.01639	559.08923	-264.48358	-35.92697	552.81860	631.00586	104.84474	554.59784	619.88733	
4387	43.860	-237.47952	24.26237	-87.67621	234.35945	28.90489	-127.15343	-241.37967	7.47194	409.70300	263.63617	15.74903	312.71860	-24.62569	815.96979	-276.85168	-111.11122	557.51746	-250.28131	44.58234	559.05347	-265.15305	-34.77946	552.72870	630.48621	106.17288	554.19843	619.18396	
4388	43.870	-237.45332	24.29358	-87.74164	234.24677	29.00247	-127.39161	-241.29211	7.40235	409.64444	263.71341	15.69505	312.69638	-23.59818	815.90576	-277.32776	-110.28065	557.57538	-250.91760	45.39635	558.97107	-266.04810	-33.72863	552.45447	629.88751	107.04202	553.93353	618.61407	
4389	43.880	-237.50046	24.42018	-87.81718	234.51169	28.95406	-127.08669	-241.18788	7.30561	409.62372	263.85992	15.55977	312.75806	-22.98493	815.95471	-278.17026	-109.31959	557.49207	-251.47113	46.23009	559.02673	-266.49179	-33.09130	552.34839	629.04224	107.83853	553.80951	617.73724	
4390	43.890	-237.50362	24.54717	-87.80509	234.38870	29.01346	-127.29701	-241.15344	7.33385	409.63055	263.89877	15.42231	312.80872	-21.79462	815.96307	-278.68497	-108.33487	557.61487	-252.44580	47.42798	559.06708	-267.40457	-31.93336	552.11334	628.41071	108.70731	553.69318	617.08588	
4391	43.900	-237.40231	24.63600	-87.84198	234.43088	29.14742	-127.20660	-241.11388	7.31789	409.64282	263.98697	15.21689	312.94794	-20.82632	815.97241	-279.43042	-108.33465	558.27747	-253.84480	48.12794	559.02954	-267.95190	-31.20608	551.83203	627.60632	109.96384	553.42816	616.42773	
4392	43.910	-237.30653	24.71341	-87.81509	234.43643	29.11516	-127.15820	-240.93622	7.30845	409.61890	263.99811	15.08728	313.00287	-19.99024	816.06598	-280.11148	-106.53799	557.67310	-253.84250	49.42926	559.12280	-268.73868	-29.97668	551.59015	626.88287	110.91532	553.28595	615.59778	
4393	43.920	-237.22192	24.69948	-87.84863	234.44376	29.07191	-127.20701	-240.78514	7.12951	409.58139	264.07739	14.98306	312.97711	-18.98520	815.99481	-280.75687	-105.27822	557.71014	-254.95821	50.40917	559.11609	-269.59579	-29.36315	551.15155	625.96356	110.95535	553.19574	614.63763	
4394	43.930	-237.21877	24.73554	-87.85649	234.57317	29.04685	-127.15960	-240.73859	7.07998	409.54309	264.16791	14.93513	312.99228	-17.80359	815.83734	-281.44257	-104.47620	557.58936	-255.61501	51.45422	559.08453	-270.30634	-27.97824	550.89813	625.20563	113.20251	552.63440	613.76141	
4395	43.940	-237.30893	24.96313	-87.98152	234.75621	29.00044	-126.98132	-240.79935	7.03673	409.53137	264.10886	14.84894	313.05972	-17.06175	816.08588	-282.37384	-103.17838	557.64667	-256.63763	52.39294	559.27850	-271.58334	-27.41027	550.62280	624.14948	113.54052	552.62958	613.03729	
4396	43.950	-237.36659	25.23274	-88.12796	234.41284	28.98682	-127.17710	-240.81564	7.06394	409.51862	264.08923	14.69857	313.17593	-15.83388	816.13623	-283.14410	-102.00618	557.63611	-257.42419	53.53989	559.42450	-272.43817	-26.07612	550.31671	623.15247	114.76875	552.21906	611.86932	
4397	43.960	-237.50873	25.43446	-88.20571	234.34462	28.97013	-127.07681	-241.02335	7.07996	409.60406	264.02927	14.58274	313.27295	-15.12512	816.32288	-284.12677	-100.75715	557.77307	-258.51086	54.82853	559.62189	-273.41895	-25.19055	550.06891	622.30591	115.60434	551.93115	611.10522	
4398	43.970	-237.68224	25.53036	-88.26544	234.13361	28.81797	-127.08453	-241.21078	6.90846	409.57147	263.77039	14.31717	313.21829	-14.13303	816.44122	-285.11557	-99.57686	557.74872	-259.54224	55.86843	559.75952	-274.41946	-24.12614	549.60699	621.07397	116.80212	551.66968	610.06665	
4399	43.980	-237.76663	25.68609	-88.31167	234.13870	28.78131	-127.05219	-241.34038	6.84585	409.55374	263.65652	14.03199	313.18002	-12.94450	816.62848	-286.05344	-98.77512	557.87384	-261.32346	57.19022	559.96344	-275.47678	-22.98499	549.26251	619.99579	117.66225	551.51917	608.77374	
4400	43.990	-237.83069	25.75651	-88.36254	234.15393	28.76657	-126.99870	-241.41870	6.70332	409.46793	263.71161	13.84590	313.21698	-11.65207	816.75677	-286.92575	-97.18230	557.87860	-261.93222	58.22132	560.35388	-276.91333	-22.01200	548.94196	618.92566	118.75923	551.09351	607.93152	
4401	44.000	-237.91216	25.87734	-88.36824	234.06006	28.72594	-126.99507	-241.45111	6.73135	409.40308	263.76285	13.65629	313.31464	-10.51106	816.70734	-288.13760	-95.93913	557.88672	-263.01498	59.77096	560.28149	-278.01459	-20.61234	548.63007	617.62927	120.23525	550.98285	606.59320	
4402	44.010	-237.93575	26.05036	-88.38014	234.06429	28.60261	-126.94132	-241.56430	6.83770	409.32339	263.81741	13.47894	313.36838	-9.62852	816.89752	-289.20407	-94.67776	558.01166	-264.57904	60.95199	560.43024	-279.07587	-19.58381	548.30054	616.24561	121.56462	551.01270	605.30066	
4403	44.020	-237.92476	26.17470	-88.35359	234.03911	28.58628	-126.94669	-241.63504	6.85629	409.29282	263.76089	13.27673	313.45245	-8.35367	817.05499	-290.45776	-93.19517	558.11871	-265.85410	62.65620	560.76093	-280.28226	-18.35028	548.06256	615.04694	122.53957	550.76196	603.89221	
4404	44.030	-237.99965	26.25644	-88.32330	234.01262	28.58854	-126.93148	-241.76898	6.73853	409.23834	263.55753	12.97294	313.51910	-7.14441	817.26086	-291.77341	-91.77197	558.09143	-267.26208	64.07562	560.69226	-281.69940	-17.04248	547.62677	613.72339	123.79038	550.42950	602.76544	
4405	44.040	-238.00719	26.27615	-88.37399	233.99474	28.61846	-126.95876	-241.80446	6.61561	409.23688	263.51126	12.82192	313.50143	-5.76380	817.29053	-292.98560	-90.14831	557.93054	-268.71765	65.49011	560.91846	-283.28305	-15.69665	547.33606	612.13361	125.08844	550.25275	601.09186	
4406	44.050	-238.02855	26.34422	-88.37488	233.92979	28.53888	-126.97495	-241.82353	6.51689	409.21292	263.52533	12.66137	313.69861	-5.00153	817.47406	-294.64853	-88.57300	558.01196	-270.13950	66.96460	561.18353	-284.67834	-14.36293	547.19861	610.59314	126.86497	550.09796	599.65479	
4407	44.060	-238.08978	26.57282	-88.36901	233.91791	28.50509	-126.97936	-241.88821	6.49459	409.23041	263.49203	12.55065	313.81985	-3.35067	817.46112	-295.95761	-87.31250	558.21820	-271.77182	68.49709	561.11261	-286.15192	-12.89441	547.09857	609.07861	126.56718	550.84296	598.01074	
4408	44.070	-238.15070	26.73804	-88.36427	234.30045	28.72524	-126.77209	-241.95326	6.41318	409.26126	263.37595	12.44576	313.90451	-2.04679	817.67365	-297.48672	-85.58320	558.01917	-273.40457	69.95264	561.31329	-287.84824	-11.36316	546.65894	607.40991	129.46455	550.06573	596.42218	
4409	44.080	-238.26309	27.03653	-88.50246	234.31187	28.86779	-126.65852	-241.99576	6.26385	409.25104	263.26047	12.21812	313.85849	-0.58836	817.66150	-299.32095	-83.99993	558.07831	-275.14432	71.16584	561.61115	-289.55930	-9.68207	546.53473	605.59790	131.18631	549.77484	594.66998	
4410	44.090	-238.33328	27.19148	-88.58669	234.31903	28.86812	-126.62733	-242.09494	6.00718	409.26920	263.20132	12.13657	313.94702	1.06506	817.69690	-300.91998	-82.47643	558.04065	-277.19247	73.50199	561.53284	-291.69098	-7.86132	546.49194	603.71387	133.25858	550.07996	592.75769	
4411	44.100	-238.47966	27.21562	-88.42889	233.96220	29.02499	-127.25001	-242.30325	5.48586	409.61884	263.06931	11.97708	314.15576	2.56010	817.78162	-303.01666	-80.25948	558.09161	-279.15158	75.45821	561.57666	-293.53485	-6.07282	546.25806	601.57544	134.97014	549.69635	590.53406	
4412	44.110	-238.42336	27.11673	-89.06558	233.95320	27.83278	-127.32349	-243.44769	9.32480	408.30707	263.22031	10.97504	313.53143	4.73605	817.66901	-305.20938	-78.41783	558.08972	-281.43387	77.50713	561.45502	-295.60861	-4.07300	545.87921	599.49884	136.94885	549.56964	588.49994	
4413	44.120	-238.24632	27.45338	-89.53093	234.08900	27.36524	-127.64388	-243.41272	17.50766	412.42905	263.81274	10.12692	313.51337	7.06172	817.88751	-307.11975	-75.85060	558.26013	-283.76761	79.75246	562.51074	-297.91412	-3.08604	544.31903	597.08496	138.38977	548.56378	586.53693	
